<svg xmlns="http://www.w3.org/2000/svg" xmlns:xlink="http://www.w3.org/1999/xlink" width="500" zoomAndPan="magnify" viewBox="0 0 375 374.999991" height="500" preserveAspectRatio="xMidYMid meet" version="1.0"><path fill="#393536" d="M 167.847656 110.355469 C 147.941406 110.355469 142.714844 113.53125 142.507812 114.757812 C 142.429688 115.21875 143.765625 117.453125 151.710938 119.960938 C 167.746094 125.019531 256.222656 119.203125 270.035156 110.25 C 252.855469 110.089844 234.691406 110.269531 218.117188 110.425781 C 199.992188 110.585938 184.34375 110.726562 173.738281 110.441406 C 171.648438 110.382812 169.6875 110.355469 167.847656 110.355469 Z M 190.597656 307.332031 C 195.003906 307.824219 199.546875 308.074219 204.203125 308.074219 C 226.65625 308.074219 242.359375 296.335938 251.578125 286.496094 C 265.628906 271.492188 274.316406 250.148438 273.199219 233.382812 C 271.4375 207 252.0625 168.25 205.96875 168.25 C 205.398438 168.25 204.824219 168.257812 204.234375 168.269531 C 159.023438 169.214844 149.292969 209.386719 148.90625 211.097656 C 148.613281 211.824219 130.308594 255.929688 177.816406 297.710938 C 181.871094 301.269531 186.152344 304.46875 190.597656 307.332031 Z M 197.011719 311.179688 C 207.726562 317.148438 219.238281 321.402344 230.875 324.398438 C 278.527344 310.253906 300.003906 275.152344 303.617188 244.839844 C 308.585938 203.160156 282.691406 156.0625 223.566406 146.6875 C 194.027344 142.007812 167.292969 148.207031 148.277344 164.148438 C 130.1875 179.304688 119.976562 202.472656 119.511719 229.382812 C 119.117188 252.289062 125.730469 270.832031 139.171875 284.492188 C 150.070312 295.574219 165.304688 303.03125 183.203125 306.261719 C 180.609375 304.359375 178.085938 302.339844 175.636719 300.183594 C 126.246094 256.761719 145.578125 210.53125 145.777344 210.070312 C 145.785156 209.921875 156.332031 165.96875 204.171875 164.96875 C 253.902344 163.859375 274.621094 205.183594 276.488281 233.164062 C 277.671875 250.785156 268.625 273.125 253.992188 288.75 C 244.328125 299.070312 227.84375 311.375 204.203125 311.375 C 201.777344 311.375 199.371094 311.308594 197.011719 311.179688 Z M 122.382812 335.273438 C 74.539062 335.273438 31.722656 333.25 20.148438 328.914062 C 3.101562 322.53125 0.257812 301.324219 1.222656 271.441406 C 2.1875 241.425781 3.359375 143.085938 3.375 142.097656 C 3.386719 141.195312 4.121094 140.46875 5.027344 140.46875 C 5.03125 140.46875 5.039062 140.46875 5.042969 140.46875 C 5.953125 140.476562 6.691406 141.222656 6.679688 142.136719 C 6.664062 143.128906 5.492188 241.496094 4.523438 271.554688 C 3.605469 300.007812 6.109375 320.128906 21.3125 325.824219 C 36.203125 331.402344 115.691406 333.652344 191.382812 330.621094 C 203.566406 330.136719 214.617188 328.558594 224.601562 326.097656 C 212.417969 322.527344 200.449219 317.503906 189.457031 310.527344 C 167.925781 307.972656 149.578125 299.773438 136.808594 286.804688 C 122.730469 272.496094 115.796875 253.148438 116.210938 229.324219 C 116.691406 201.449219 127.324219 177.402344 146.148438 161.621094 C 165.910156 145.054688 193.578125 138.59375 224.082031 143.425781 C 285.261719 153.128906 312.058594 201.988281 306.894531 245.230469 C 303.296875 275.488281 282.59375 310.351562 237.128906 325.882812 C 272.121094 333.546875 307.210938 330.550781 324.484375 329.074219 C 326.339844 328.921875 328.011719 328.773438 329.464844 328.664062 C 356.601562 326.582031 369.644531 313.382812 370.523438 287.128906 C 371.496094 257.847656 369.535156 179.378906 367.578125 154.007812 C 365.628906 128.746094 361.058594 120.960938 332.554688 114.316406 C 320.886719 111.597656 298.867188 110.59375 274.335938 110.296875 C 274.109375 110.894531 273.679688 111.539062 272.949219 112.195312 C 261.421875 122.328125 168.910156 128.855469 150.71875 123.109375 C 142.542969 120.53125 138.6875 117.535156 139.25 114.207031 C 140.421875 107.253906 161.4375 106.796875 173.828125 107.140625 C 184.386719 107.4375 200.003906 107.292969 218.09375 107.125 C 234.925781 106.964844 253.390625 106.789062 270.871094 106.960938 C 268.921875 96.269531 265.398438 79.316406 250.203125 65.921875 C 244.09375 60.539062 210.578125 56.179688 181.621094 58.933594 C 161.875 60.816406 148.054688 65.652344 142.71875 72.550781 C 137.550781 79.226562 134.851562 85.714844 132.464844 91.445312 C 127.105469 104.335938 122.867188 114.515625 96.445312 117.292969 C 83.285156 118.675781 70.804688 118.847656 59.785156 118.992188 C 40.671875 119.25 25.574219 119.457031 22.207031 126.191406 C 20.75 129.097656 21.46875 130.308594 21.710938 130.703125 C 24.058594 134.640625 36.503906 135.046875 48.535156 135.4375 C 64.570312 135.957031 82.746094 136.546875 89.707031 144.988281 C 103.683594 161.949219 97.222656 291.558594 96.945312 297.066406 C 96.890625 297.976562 96.148438 298.765625 95.207031 298.628906 C 94.300781 298.582031 93.59375 297.808594 93.640625 296.898438 C 96.007812 250.675781 97.691406 159.875 87.152344 147.082031 C 81.144531 139.796875 63.761719 139.234375 48.429688 138.734375 C 33.746094 138.261719 22.140625 137.882812 18.871094 132.390625 C 17.621094 130.300781 17.75 127.714844 19.25 124.714844 C 23.519531 116.183594 38.710938 115.980469 59.742188 115.695312 C 70.683594 115.546875 83.09375 115.378906 96.097656 114.011719 C 120.570312 111.4375 124.28125 102.519531 129.414062 90.179688 C 131.878906 84.261719 134.671875 77.554688 140.101562 70.535156 C 147.667969 60.753906 166.6875 57.042969 181.3125 55.648438 C 209.640625 52.957031 244.863281 56.816406 252.382812 63.445312 C 268.738281 77.863281 272.230469 95.929688 274.238281 106.996094 C 299.046875 107.292969 321.359375 108.320312 333.304688 111.101562 C 363.398438 118.121094 368.84375 127.433594 370.871094 153.753906 C 372.839844 179.199219 374.804688 257.878906 373.828125 287.234375 C 372.898438 315.121094 358.472656 329.742188 329.722656 331.949219 C 328.269531 332.0625 326.613281 332.203125 324.761719 332.363281 C 306.425781 333.933594 268.238281 337.199219 230.957031 327.828125 C 219.339844 331.1875 206.230469 333.328125 191.511719 333.921875 C 169.230469 334.808594 145.226562 335.273438 122.382812 335.273438 " fill-opacity="1" fill-rule="nonzero"/></svg>